<?xml version="1.0" encoding="UTF-8" standalone="no"?>
<svg
   version="1.0"
   width="200.000000pt"
   height="200.000000pt"
   viewBox="0 0 200.000000 200.000000"
   preserveAspectRatio="xMidYMid meet"
   id="svg1"
   sodipodi:docname="koeleman_logo.svg"
   inkscape:version="1.4.2 (f4327f4, 2025-05-13)"
   xmlns:inkscape="http://www.inkscape.org/namespaces/inkscape"
   xmlns:sodipodi="http://sodipodi.sourceforge.net/DTD/sodipodi-0.dtd"
   xmlns="http://www.w3.org/2000/svg"
   xmlns:svg="http://www.w3.org/2000/svg">
  <defs
     id="defs1" />
  <sodipodi:namedview
     id="namedview1"
     pagecolor="#505050"
     bordercolor="#ffffff"
     borderopacity="1"
     inkscape:showpageshadow="0"
     inkscape:pageopacity="0"
     inkscape:pagecheckerboard="1"
     inkscape:deskcolor="#505050"
     inkscape:document-units="pt"
     inkscape:zoom="2.91375"
     inkscape:cx="133.33333"
     inkscape:cy="133.16173"
     inkscape:window-width="1920"
     inkscape:window-height="991"
     inkscape:window-x="4791"
     inkscape:window-y="-9"
     inkscape:window-maximized="1"
     inkscape:current-layer="svg1" />
  <g
     transform="translate(0.000000,200.000000) scale(0.100000,-0.100000)"
     fill="#000000"
     stroke="none"
     id="g1">
    <path
       d="M0 1000 l0 -1000 1000 0 1000 0 0 1000 0 1000 -1000 0 -1000 0 0 -1000z m1040 770 l23 -49 -56 -114 c-32 -63 -57 -119 -57 -125 0 -9 36 -12 120 -12 l120 0 22 -44 c34 -70 26 -76 -102 -76 -67 0 -110 -4 -110 -10 0 -19 230 -471 238 -466 4 2 29 49 56 105 49 99 63 116 83 103 19 -12 304 -594 299 -609 -4 -10 -20 -13 -58 -11 l-53 3 -101 198 -100 199 -33 -65 -33 -64 62 -123 c34 -67 59 -129 56 -137 -4 -10 -20 -13 -58 -11 l-53 3 -85 167 c-47 93 -88 168 -91 168 -3 0 -18 -27 -34 -60 l-29 -61 49 -99 c56 -113 54 -123 -21 -118 -45 3 -51 6 -69 40 -11 21 -22 38 -25 38 -3 0 -14 -17 -25 -38 -18 -34 -24 -37 -69 -40 -75 -5 -77 5 -21 118 l49 99 -29 61 c-16 33 -31 60 -34 60 -3 0 -15 -17 -26 -38 -18 -33 -24 -37 -66 -40 -80 -5 -80 7 1 167 89 179 91 179 162 36 29 -58 55 -105 58 -105 4 0 19 27 35 60 l29 61 -94 189 c-52 105 -97 190 -101 190 -4 0 -23 -34 -43 -75 l-37 -75 -50 0 c-37 0 -51 4 -56 16 -9 24 297 634 318 634 9 0 25 -21 39 -50z m-348 -746 c16 -10 7 -31 -91 -229 l-99 -200 110 -5 c134 -6 144 -14 107 -81 l-24 -44 -183 -3 c-149 -2 -183 0 -188 12 -3 7 56 135 130 284 112 223 139 271 158 274 25 4 67 0 80 -8z"
       id="path1" />
  </g>
  <path
     style="fill:#132045;stroke-width:0.3432;fill-opacity:1"
     d="M 0.17160017,133.33333 V 0.17160017 H 133.33333 266.49507 V 133.33333 266.49507 H 133.33333 0.17160017 Z m 90.24608883,71.42291 2.5584,-0.20884 2.589135,-4.8048 c 2.393791,-4.44229 2.589172,-4.95875 2.589604,-6.84529 4.43e-4,-1.92295 -0.0645,-2.08456 -1.127475,-2.80565 -2.012472,-1.36521 -6.073091,-1.84978 -21.342462,-2.54686 -4.430796,-0.20228 -8.116702,-0.42849 -8.190906,-0.5027 -0.0742,-0.0742 4.577771,-9.67937 10.33772,-21.34483 14.053186,-28.46151 15.516815,-31.73187 15.284204,-34.15139 -0.08796,-0.91491 -0.350232,-1.24784 -1.379195,-1.75077 -1.446823,-0.70716 -6.338313,-1.19244 -9.16267,-0.909 -1.661859,0.16677 -1.998809,0.34676 -3.262847,1.74293 -2.237859,2.4718 -6.71873,10.71667 -17.137421,31.53312 -12.232381,24.4402 -19.102133,39.22343 -19.102133,41.10648 0,0.95786 1.548355,1.50922 5.091727,1.81313 3.256271,0.27929 38.136834,0.0106 42.254319,-0.32553 z m 34.893561,-0.0839 c 1.90512,-0.47971 3.05055,-1.66607 5.05301,-5.23356 0.91486,-1.62989 1.95717,-3.30938 2.31623,-3.73221 l 0.65284,-0.76878 0.65285,0.76878 c 0.35906,0.42283 1.40153,2.10747 2.3166,3.74364 2.80029,5.00703 3.47117,5.38709 10.24377,5.80322 7.15149,0.43941 8.50927,-0.82885 6.68155,-6.24102 -0.38349,-1.13557 -2.98673,-6.7841 -5.78499,-12.55228 l -5.08773,-10.48761 3.54456,-7.16258 c 1.9495,-3.93942 3.78055,-7.46237 4.06898,-7.82877 0.51913,-0.65947 0.52939,-0.65947 1.01474,0 1.01578,1.38015 7.27486,13.2031 14.88039,28.10796 7.12926,13.9715 7.96699,15.45553 8.86395,15.70244 0.54482,0.14997 3.54463,0.31082 6.66625,0.35745 8.23831,0.12307 8.52823,-0.16125 6.31575,-6.19361 -0.67198,-1.83217 -4.18549,-9.33258 -7.80781,-16.66759 l -6.58602,-13.33637 4.26212,-8.37408 4.26213,-8.37408 9.4027,18.62165 c 5.17148,10.24191 11.17314,22.04916 13.33702,26.23835 l 3.93432,7.61669 1.44847,0.21651 c 0.79667,0.11908 3.77105,0.24369 6.60974,0.27691 4.50031,0.0527 5.2851,-0.0206 6.12834,-0.57204 1.20506,-0.78809 1.13794,-1.2234 -0.93727,-6.07913 -6.00798,-14.05795 -30.12695,-63.05296 -35.97467,-73.07857 -2.27991,-3.90878 -3.44962,-4.54099 -5.38642,-2.91127 -1.59673,1.34355 -3.5718,4.70701 -8.55935,14.57615 -5.48015,10.84386 -6.54815,12.76623 -6.95338,12.51578 -1.16559,-0.72037 -18.5943,-34.11386 -26.68357,-51.125822 -3.91587,-8.235191 -4.79137,-10.320456 -4.46857,-10.64326 0.42241,-0.422407 6.78879,-0.872559 16.41237,-1.160484 13.06421,-0.39086 13.91479,-0.654208 13.65628,-4.228129 -0.11371,-1.57209 -0.6268,-2.947033 -2.58005,-6.913856 l -2.4381,-4.95152 -14.35768,-0.171023 c -13.48009,-0.160567 -16.5074,-0.370609 -17.33987,-1.203072 -0.42364,-0.423646 2.29787,-6.498217 9.32238,-20.808038 l 5.54592,-11.297747 -2.58693,-5.236786 c -2.55717,-5.17659 -4.61962,-8.032159 -5.80124,-8.032159 -0.30533,0 -1.15753,0.888031 -1.89376,1.973402 -7.47797,11.024134 -37.472978,71.036382 -40.354052,80.738004 -1.039654,3.50089 0.233009,4.11347 8.551958,4.11637 l 5.494914,0.002 3.72421,-7.46461 c 4.10485,-8.227535 6.25936,-12.097809 6.73463,-12.097809 0.56327,0 4.31064,7.08568 15.17537,28.694279 l 10.71735,21.31546 -2.61283,5.45417 c -2.85207,5.95355 -5.15447,10.169 -5.63828,10.3231 -0.43536,0.13867 -2.48253,-3.49886 -7.79077,-13.84316 -2.53285,-4.93582 -4.96023,-9.4918 -5.39419,-10.12441 -2.67222,-3.89552 -4.37971,-4.38226 -6.74379,-1.9224 -1.96738,2.04709 -3.55031,4.81688 -9.36833,16.39251 -7.657295,15.23509 -9.099001,19.05274 -8.098977,21.44613 0.631183,1.51064 1.428939,1.72575 6.211957,1.67504 4.28524,-0.0454 7.17488,-0.71496 8.29746,-1.92251 0.40031,-0.43061 1.52373,-2.17289 2.49648,-3.87174 0.97275,-1.69884 2.07555,-3.39768 2.45066,-3.7752 l 0.68203,-0.6864 0.52361,0.6864 c 0.28798,0.37752 2.11012,3.90956 4.04919,7.84898 l 3.52559,7.16258 -5.08774,10.48761 c -5.44312,11.22017 -6.48224,13.79346 -6.48224,16.05269 0,2.45798 1.28738,2.95311 7.02456,2.70165 2.25904,-0.099 4.75446,-0.34297 5.54538,-0.54213 z"
     id="path2"
     transform="scale(0.75)" />
</svg>
